<?xml version="1.0" encoding="utf-8"?>
<!-- Generator: Adobe Illustrator 24.0.2, SVG Export Plug-In . SVG Version: 6.00 Build 0)  -->
<svg version="1.1" id="Capa_1" xmlns="http://www.w3.org/2000/svg" xmlns:xlink="http://www.w3.org/1999/xlink" x="0px" y="0px"
	 viewBox="0 0 542.2 543.6" style="enable-background:new 0 0 542.2 543.6;" xml:space="preserve">
<style type="text/css">
	.st0{fill:#FFFFFF;}
	.st1{display:none;}
	.st2{fill:#333333;}
	.st3{fill:#FDFDFD;}
	.st4{fill:#E5195B;}
</style>
<circle class="st0" cx="270.8" cy="273.1" r="264.4"/>
<g id="Capa_1_1_" class="st1">
	
		<image style="display:inline;overflow:visible;enable-background:new    ;" width="1001" height="1080" xlink:href="../../../../Pictures/541B7DAE.jpeg"  transform="matrix(0.5838 0 0 0.5838 -29.5678 -51.7404)">
	</image>
</g>
<g id="Capa_2_1_">
	<g>
		<g>
			<path class="st2" d="M200,116.6l-86.6-45.7l26.6,94.2c0,0,11.1-14.4,26.2-26.2C166,139,179.5,127.1,200,116.6z"/>
			<path class="st2" d="M141.5,165.1l-97.9-4.8l63.9,74.2c0,0,3.9-17.7,12.6-34.8C120.2,199.7,127.3,183.3,141.5,165.1z"/>
			<path class="st2" d="M108.6,235.2l-90.4,37.7l89.5,39.6c0,0-4-17.7-3.5-36.9C104.2,275.6,103.6,257.7,108.6,235.2z"/>
			<path class="st2" d="M107.7,312.1l-65.3,73l97.8-3c0,0-11.3-14.2-19.1-31.7C121.2,350.4,112.9,334.5,107.7,312.1z"/>
			<path class="st2" d="M140.6,381l-24.5,94.8l85.6-47.6c0,0-16.5-7.5-31.5-19.4C170.2,408.9,155.5,398.5,140.6,381z"/>
			<path class="st2" d="M201.7,428.4l18.7,96.2l56.8-79.8c0,0-18.1,0.4-36.8-4C240.4,440.9,222.7,437.8,201.7,428.4z"/>
			<path class="st2" d="M275.8,445l57.9,79l17.4-96.3c0,0-16.2,8.1-35,12.1C316.1,439.8,298.8,444.6,275.8,445z"/>
			<path class="st2" d="M351.1,429.2l86.7,45.6l-26.7-94.2c0,0-11,14.4-26.1,26.2C385,406.9,371.5,418.7,351.1,429.2z"/>
			<path class="st2" d="M409.5,382.7l98.4,4.1l-63.4-75.2c0,0-4.2,18.1-13.1,35.6C431.4,347.3,424,364.1,409.5,382.7z"/>
			<path class="st2" d="M443.3,310.7l90.5-37.5l-89.5-39.8c0,0,4,17.7,3.4,36.9C447.8,270.3,448.3,288.2,443.3,310.7z"/>
			<path class="st2" d="M444,234.2l64.3-73.9l-97.8,4.3c0,0,11.4,14,19.5,31.5C430.1,196,438.5,211.9,444,234.2z"/>
			<path class="st2" d="M410.4,165.3l25.5-94.6l-86.1,46.7c0,0,16.4,7.6,31.3,19.8C381.1,137.2,395.7,147.7,410.4,165.3z"/>
			<path class="st2" d="M351.4,119l-16.5-96.6l-58.6,78.4c0,0,18.1,0,36.7,4.8C313,105.7,330.6,109.2,351.4,119z"/>
			<path class="st2" d="M275.4,102.4l-56.9-79.7L200,118.8c0,0,16.3-7.9,35.1-11.7C235.1,107.2,252.5,102.6,275.4,102.4z"/>
		</g>
		<circle class="st3" cx="277.4" cy="272.9" r="174.2"/>
		<circle class="st4" cx="277.4" cy="272" r="158.9"/>
		<circle class="st0" cx="277.4" cy="272.9" r="142.7"/>
		<path class="st2" d="M288.3,152.2c3-1.4-6.7-0.4-10.1-0.4c-67.1,0-121.5,54.4-121.5,121.5s54.4,121.5,121.5,121.5
			c16.5,0,32.1-3.3,46.5-9.2c0,0-97.8-9-110.9-112.4C213.8,273.3,204,190.9,288.3,152.2z"/>
	</g>
	<g>
		<g>
			<path class="st2" d="M319.7,216.8l16.1-53.3h22.9v5l-7.3,1.8v48.8l7.3,1.8v5h-24.9v-5l6.3-1.8v-48.7l-15.8,55.5H312l-15.3-55.5
				v48.7l6.3,1.8v5h-21.9v-5l7.3-1.8v-48.8l-7.3-1.8v-5h23.3l15,53.3L319.7,216.8L319.7,216.8z"/>
		</g>
		<g>
			<path class="st4" d="M339.2,270.7l-3.6,0.9c0,1.8-0.3,3.6-0.9,5.4s-1.3,3.4-2.3,4.8c0.3,0.4,0.7,0.8,1.3,1.1s1,0.4,1.5,0.4
				c0.7,0,1.4-0.2,2-0.5c0.6-0.4,1.1-0.8,1.5-1.4l1.8,2.6c-1.4,1.9-3.3,2.9-5.9,2.9c-1.1,0-2.1-0.2-3.1-0.6s-1.9-0.9-2.8-1.6
				c-1.2,0.8-2.5,1.4-3.9,1.7s-3,0.5-4.8,0.5c-3.8,0-6.8-0.8-9-2.5s-3.3-4-3.3-6.9c0-2,0.5-3.6,1.7-5.1c1.1-1.4,3-2.9,5.6-4.3
				c-1.7-2.8-2.6-5.4-2.6-7.9c0-1.6,0.4-3.1,1.1-4.3c0.7-1.3,1.8-2.2,3.1-2.9s3-1,4.8-1s3.3,0.3,4.5,0.9s2.2,1.4,2.9,2.4
				c0.7,1,1,2.2,1,3.5c0,1.8-0.6,3.5-1.9,5.3s-3.2,3.3-5.9,4.7l7.8,10.1c0.4-0.7,0.8-1.7,1.2-2.9s0.7-2.6,0.7-4.1l-3.6-0.9v-2.7
				h11.3L339.2,270.7L339.2,270.7z M320.4,283.4c1.2,0,2.3-0.1,3.3-0.4s1.7-0.6,2.1-0.9l-8.8-11.2c-1.1,0.6-2,1.5-2.5,2.7
				c-0.6,1.2-0.9,2.5-0.9,3.9c0,1.9,0.6,3.4,1.8,4.4C316.6,282.8,318.3,283.4,320.4,283.4z M317.6,259c0,1.1,0.1,2.1,0.4,3
				s0.8,2,1.6,3.3c1.7-1.1,3-2.2,3.9-3.1s1.4-2.1,1.4-3.4c0-1.1-0.3-2-1-2.6c-0.7-0.6-1.6-1-2.8-1c-1,0-1.9,0.3-2.5,1
				C318,256.8,317.6,257.7,317.6,259z"/>
		</g>
		<g>
			<path class="st2" d="M326.7,374.2c-3.5,0-6.4-0.5-8.8-1.5s-4.5-2.6-6.4-4.8l-1,5.3h-7.8v-22h8.3c0.4,6,1.9,10.3,4.5,12.8
				s6,3.8,10.4,3.8c3.5,0,6.2-0.7,8.3-2.2s3.1-3.7,3.1-6.7c0-2.5-0.7-4.5-2-6.1c-1.4-1.6-3.3-3-5.7-4.3s-5.3-2.5-8.6-3.9
				c-3.8-1.6-7-3.2-9.6-4.8s-4.7-3.6-6.1-5.9s-2.1-5.2-2.1-8.7c0-5.9,1.8-10.4,5.4-13.6s8.4-4.8,14.5-4.8c6,0,10.9,1.7,14.6,5.1
				l0.7-4.1h7.8v22h-7.9c0-5.7-1.1-9.9-3.2-12.6s-5.4-4.1-9.8-4.1c-6.8,0-10.3,3.2-10.3,9.7c0,2.1,0.4,3.8,1.3,5.1
				c0.9,1.3,2.3,2.5,4.2,3.5s4.6,2.4,8,3.9c5.1,2.3,9.1,4.5,12.2,6.4c3,2,5.2,4.1,6.5,6.3s2,4.8,2,7.8c0,4-1,7.4-3,10.2
				c-2,2.7-4.7,4.8-8,6.1S330.9,374.2,326.7,374.2z"/>
		</g>
	</g>
</g>
</svg>
